<svg width="159" height="80" viewBox="0 0 159 80" fill="none" xmlns="http://www.w3.org/2000/svg">
<path d="M35.3077 55.3539H27.0839V80H31.4773V72.742H35.3077C38.0673 72.742 40.5699 71.8744 42.3444 70.2947C44.1189 68.7151 45.0979 66.5012 45.0979 64.0479C45.0979 61.5947 44.1189 59.3329 42.3444 57.7712C40.5699 56.2095 38.0673 55.3539 35.3077 55.3539ZM35.3199 68.8647H31.4834V59.2312H35.3199C38.5752 59.2312 40.9371 61.2536 40.9371 64.042C40.9371 66.8303 38.5752 68.8587 35.3199 68.8587V68.8647Z" fill="white"/>
<path d="M92.5301 64.0424C92.5301 61.5892 91.5511 59.3274 89.7766 57.7657C88.0022 56.204 85.4995 55.3484 82.7399 55.3484H74.5162V79.9945H78.9095V72.7365H82.7399C82.795 72.7365 82.8439 72.7365 82.8929 72.7305L87.4209 79.9945H92.2609L87.1761 71.8868C88.149 71.4859 89.0301 70.9534 89.7766 70.2892C91.5511 68.7096 92.5301 66.4957 92.5301 64.0424ZM82.746 68.8652H78.9095V59.2317H82.746C86.0013 59.2317 88.3632 61.2541 88.3632 64.0424C88.3632 66.8307 86.0013 68.8592 82.746 68.8592V68.8652Z" fill="white"/>
<path d="M96.191 59.4047H103.24V79.994H107.639V59.4047H114.688V55.3539H96.191V59.4047Z" fill="white"/>
<path d="M120.758 79.994H136.587V76.1167H125.151V69.7024H134.892V65.8191H125.151V59.2312H136.587V55.3539H120.758V79.994Z" fill="white"/>
<path d="M149.063 75.9432V55.3539H144.67V79.994H159V75.9432H149.063Z" fill="white"/>
<path d="M8.82343 55.3539L0 80H4.66871C7.28147 77.1518 11.3505 76.0808 15.6093 76.0329L16.9371 80H21.6058L12.7823 55.3539H8.82343ZM6.63287 74.0763L10.7815 61.6186L14.306 72.1436C11.5525 72.2633 8.8785 72.8557 6.63287 74.0763Z" fill="white"/>
<path d="M55.9698 55.3539L47.1464 80H51.8151C54.4279 77.1518 58.4969 76.0808 62.7557 76.0329L64.0835 80H68.7522L59.9288 55.3539H55.9698ZM53.7854 74.0763L57.934 61.6186L61.4585 72.1436C58.705 72.2633 56.031 72.8557 53.7854 74.0763Z" fill="white"/>
<path d="M61.9256 33.7835L59.4291 38.4567H66.3373L68.2709 34.8426C66.4964 34.2084 64.624 33.7835 62.2927 33.7835C62.1703 33.7835 62.048 33.7835 61.9317 33.7835H61.9256Z" fill="white"/>
<path d="M117.643 38.4494L98.9924 3.58936L91.2643 18.0336L94.7214 24.4898L98.9924 16.5018L104.922 27.5893C104.922 27.5893 104.885 27.5893 104.867 27.5953C102.413 28.1517 100.179 29.6297 97.7013 32.1008C96.0492 33.7523 94.3482 35.1465 92.5921 36.2414C92.537 36.2773 92.5615 36.2714 92.5064 36.3013C93.0877 37.4202 94.3176 38.1442 95.988 38.3417C96.3368 38.3835 96.6856 38.4015 97.0344 38.4015C99.1087 38.4015 100.902 37.3783 102.792 35.667C104.151 34.4344 105.638 33.2616 107.596 32.5676L110.735 38.4314L117.643 38.4494Z" fill="white"/>
<path d="M93.7064 25.6394L79.994 0L66.3917 25.43C67.542 25.6095 68.6802 25.8727 69.8183 26.2138C70.7239 26.4831 71.5805 26.7942 72.3943 27.1173L79.9879 12.9184L89.0438 29.8518C88.897 29.9535 88.744 30.0492 88.591 30.145C86.2903 31.581 84.0202 32.2033 81.8419 31.9819C79.327 31.7306 77.2588 30.7972 74.8664 29.7202C71.4153 28.1644 67.5053 26.3993 61.6802 26.5309C59.2081 26.5848 57.0604 26.9558 55.0228 27.6439L60.9826 16.5085L65.2536 24.4965L68.7108 18.0403L60.9887 3.59011L42.3445 38.4501H49.2527C51.2964 36.3559 52.924 34.9378 54.7842 34.0044C56.8707 32.9513 59.1102 32.4367 61.827 32.3768C66.2693 32.2811 69.2309 33.6154 72.3698 35.0335C75.0071 36.2242 77.7361 37.4509 81.2422 37.8039C84.7973 38.1569 88.3585 37.2414 91.8218 35.0754C91.8218 35.0754 91.834 35.0694 91.834 35.0634C93.4861 34.0283 95.0954 32.7179 96.6557 31.1562L93.7064 25.6454V25.6394Z" fill="white"/>
</svg>
